<mxfile host="65bd71144e">
    <diagram id="m3JgCPKOkseNxiYl1np6" name="第 1 页">
        <mxGraphModel dx="1368" dy="965" grid="1" gridSize="10" guides="1" tooltips="1" connect="1" arrows="1" fold="1" page="1" pageScale="1" pageWidth="1527" pageHeight="1169" math="0" shadow="0">
            <root>
                <mxCell id="0"/>
                <mxCell id="1" parent="0"/>
                <mxCell id="27" value="&lt;span style=&quot;white-space: pre;&quot;&gt;&#9;&lt;/span&gt;&lt;span style=&quot;white-space: pre;&quot;&gt;&#9;&lt;/span&gt;&lt;span style=&quot;white-space: pre;&quot;&gt;&#9;&lt;/span&gt;&lt;span style=&quot;white-space: pre;&quot;&gt;&#9;&lt;/span&gt;IF no ref" style="rounded=0;whiteSpace=wrap;html=1;fillColor=none;dashed=1;dashPattern=1 4;glass=0;shadow=0;align=left;verticalAlign=top;labelBackgroundColor=none;labelBorderColor=none;fontStyle=1;fontColor=#FFFF00;spacingLeft=0;strokeColor=#FFFF00;" vertex="1" parent="1">
                    <mxGeometry x="290" y="90" width="490" height="180" as="geometry"/>
                </mxCell>
                <mxCell id="6" value="CN" style="rounded=1;whiteSpace=wrap;html=1;" vertex="1" parent="1">
                    <mxGeometry x="50" y="30" width="80" height="30" as="geometry"/>
                </mxCell>
                <mxCell id="9" value="DN" style="rounded=1;whiteSpace=wrap;html=1;" vertex="1" parent="1">
                    <mxGeometry x="270" y="30" width="80" height="30" as="geometry"/>
                </mxCell>
                <mxCell id="11" value="MN" style="rounded=1;whiteSpace=wrap;html=1;" vertex="1" parent="1">
                    <mxGeometry x="500" y="30" width="80" height="30" as="geometry"/>
                </mxCell>
                <mxCell id="13" value="DN'" style="rounded=1;whiteSpace=wrap;html=1;" vertex="1" parent="1">
                    <mxGeometry x="720" y="30" width="80" height="30" as="geometry"/>
                </mxCell>
                <mxCell id="14" value="read/write" style="endArrow=classic;html=1;" edge="1" parent="1">
                    <mxGeometry width="50" height="50" relative="1" as="geometry">
                        <mxPoint x="90" y="90" as="sourcePoint"/>
                        <mxPoint x="310" y="110" as="targetPoint"/>
                    </mxGeometry>
                </mxCell>
                <mxCell id="15" value="get rack" style="endArrow=classic;html=1;startArrow=none;" edge="1" parent="1">
                    <mxGeometry width="50" height="50" relative="1" as="geometry">
                        <mxPoint x="310" y="120" as="sourcePoint"/>
                        <mxPoint x="540" y="140" as="targetPoint"/>
                    </mxGeometry>
                </mxCell>
                <mxCell id="16" value="" style="endArrow=classic;html=1;" edge="1" parent="1">
                    <mxGeometry width="50" height="50" relative="1" as="geometry">
                        <mxPoint x="540" y="150" as="sourcePoint"/>
                        <mxPoint x="310" y="170" as="targetPoint"/>
                    </mxGeometry>
                </mxCell>
                <mxCell id="19" value="IF write&lt;br&gt;get data" style="endArrow=classic;html=1;" edge="1" parent="1">
                    <mxGeometry width="50" height="50" relative="1" as="geometry">
                        <mxPoint x="310.0000000000002" y="120" as="sourcePoint"/>
                        <mxPoint x="90" y="140" as="targetPoint"/>
                    </mxGeometry>
                </mxCell>
                <mxCell id="20" value="data buf" style="endArrow=classic;html=1;" edge="1" parent="1">
                    <mxGeometry width="50" height="50" relative="1" as="geometry">
                        <mxPoint x="90" y="149" as="sourcePoint"/>
                        <mxPoint x="310" y="179" as="targetPoint"/>
                    </mxGeometry>
                </mxCell>
                <mxCell id="22" value="get ref" style="endArrow=classic;html=1;" edge="1" parent="1">
                    <mxGeometry width="50" height="50" relative="1" as="geometry">
                        <mxPoint x="310" y="209" as="sourcePoint"/>
                        <mxPoint x="760" y="229" as="targetPoint"/>
                    </mxGeometry>
                </mxCell>
                <mxCell id="23" value="" style="endArrow=classic;html=1;" edge="1" parent="1">
                    <mxGeometry width="50" height="50" relative="1" as="geometry">
                        <mxPoint x="760" y="239" as="sourcePoint"/>
                        <mxPoint x="310" y="259" as="targetPoint"/>
                    </mxGeometry>
                </mxCell>
                <mxCell id="24" value="RDMA OP" style="endArrow=classic;html=1;" edge="1" parent="1">
                    <mxGeometry width="50" height="50" relative="1" as="geometry">
                        <mxPoint x="310" y="312" as="sourcePoint"/>
                        <mxPoint x="760" y="342" as="targetPoint"/>
                    </mxGeometry>
                </mxCell>
                <mxCell id="26" value="" style="endArrow=classic;html=1;dashed=1;dashPattern=12 12;" edge="1" parent="1">
                    <mxGeometry width="50" height="50" relative="1" as="geometry">
                        <mxPoint x="760" y="352" as="sourcePoint"/>
                        <mxPoint x="310" y="372" as="targetPoint"/>
                    </mxGeometry>
                </mxCell>
                <mxCell id="29" value="ref" style="ellipse;whiteSpace=wrap;html=1;rounded=0;shadow=0;glass=0;labelBackgroundColor=none;labelBorderColor=none;sketch=0;fillColor=none;" vertex="1" parent="1">
                    <mxGeometry x="275" y="290" width="30" height="20" as="geometry"/>
                </mxCell>
                <mxCell id="30" value="DN" style="ellipse;whiteSpace=wrap;html=1;rounded=0;shadow=0;glass=0;labelBackgroundColor=none;labelBorderColor=none;sketch=0;fillColor=none;" vertex="1" parent="1">
                    <mxGeometry x="770" y="230" width="30" height="20" as="geometry"/>
                </mxCell>
                <mxCell id="31" value="IF read&lt;br&gt;read data" style="endArrow=classic;html=1;" edge="1" parent="1">
                    <mxGeometry width="50" height="50" relative="1" as="geometry">
                        <mxPoint x="310.00000000000045" y="390" as="sourcePoint"/>
                        <mxPoint x="90" y="410" as="targetPoint"/>
                    </mxGeometry>
                </mxCell>
                <mxCell id="34" value="DN''" style="rounded=1;whiteSpace=wrap;html=1;" vertex="1" parent="1">
                    <mxGeometry x="970" y="30" width="80" height="30" as="geometry"/>
                </mxCell>
                <mxCell id="7" style="edgeStyle=none;html=1;" edge="1" parent="1" source="6">
                    <mxGeometry relative="1" as="geometry">
                        <mxPoint x="86" y="1140" as="targetPoint"/>
                    </mxGeometry>
                </mxCell>
                <mxCell id="8" style="edgeStyle=none;html=1;" edge="1" parent="1" source="9">
                    <mxGeometry relative="1" as="geometry">
                        <mxPoint x="307" y="1130" as="targetPoint"/>
                    </mxGeometry>
                </mxCell>
                <mxCell id="10" style="edgeStyle=none;html=1;" edge="1" parent="1" source="11">
                    <mxGeometry relative="1" as="geometry">
                        <mxPoint x="538" y="1140" as="targetPoint"/>
                    </mxGeometry>
                </mxCell>
                <mxCell id="12" style="edgeStyle=none;html=1;" edge="1" parent="1" source="13">
                    <mxGeometry relative="1" as="geometry">
                        <mxPoint x="758" y="1140" as="targetPoint"/>
                    </mxGeometry>
                </mxCell>
                <mxCell id="33" style="edgeStyle=none;html=1;" edge="1" parent="1" source="34">
                    <mxGeometry relative="1" as="geometry">
                        <mxPoint x="1007" y="1140" as="targetPoint"/>
                    </mxGeometry>
                </mxCell>
                <mxCell id="39" value="" style="endArrow=none;html=1;fontColor=#FFFF00;strokeWidth=5;" edge="1" parent="1">
                    <mxGeometry width="50" height="50" relative="1" as="geometry">
                        <mxPoint x="40" y="460" as="sourcePoint"/>
                        <mxPoint x="1430" y="458" as="targetPoint"/>
                    </mxGeometry>
                </mxCell>
                <mxCell id="40" value="latch 2 rack" style="endArrow=classic;html=1;startArrow=none;" edge="1" parent="1">
                    <mxGeometry width="50" height="50" relative="1" as="geometry">
                        <mxPoint x="1010" y="535" as="sourcePoint"/>
                        <mxPoint x="540" y="555" as="targetPoint"/>
                    </mxGeometry>
                </mxCell>
                <mxCell id="41" value="" style="endArrow=classic;html=1;" edge="1" parent="1">
                    <mxGeometry width="50" height="50" relative="1" as="geometry">
                        <mxPoint x="540" y="565" as="sourcePoint"/>
                        <mxPoint x="1010" y="595" as="targetPoint"/>
                    </mxGeometry>
                </mxCell>
                <mxCell id="45" value="ref" style="ellipse;whiteSpace=wrap;html=1;rounded=0;shadow=0;glass=0;labelBackgroundColor=none;labelBorderColor=none;sketch=0;fillColor=none;" vertex="1" parent="1">
                    <mxGeometry x="1020" y="620" width="30" height="20" as="geometry"/>
                </mxCell>
                <mxCell id="47" value="IF swap&lt;br&gt;swap out&amp;nbsp; ref'" style="endArrow=classic;html=1;" edge="1" parent="1">
                    <mxGeometry width="50" height="50" relative="1" as="geometry">
                        <mxPoint x="1010" y="650" as="sourcePoint"/>
                        <mxPoint x="764" y="670" as="targetPoint"/>
                    </mxGeometry>
                </mxCell>
                <mxCell id="48" value="UNTIL&lt;br&gt;swapin page cache del complete&lt;br&gt;RDMA OP" style="endArrow=classic;html=1;" edge="1" parent="1">
                    <mxGeometry width="50" height="50" relative="1" as="geometry">
                        <mxPoint x="760" y="863" as="sourcePoint"/>
                        <mxPoint x="1010" y="893" as="targetPoint"/>
                    </mxGeometry>
                </mxCell>
                <mxCell id="49" value="" style="endArrow=classic;html=1;dashed=1;dashPattern=12 12;" edge="1" parent="1">
                    <mxGeometry width="50" height="50" relative="1" as="geometry">
                        <mxPoint x="1010" y="903" as="sourcePoint"/>
                        <mxPoint x="760" y="913" as="targetPoint"/>
                    </mxGeometry>
                </mxCell>
                <mxCell id="50" value="swap ok" style="endArrow=classic;html=1;" edge="1" parent="1">
                    <mxGeometry width="50" height="50" relative="1" as="geometry">
                        <mxPoint x="760" y="941" as="sourcePoint"/>
                        <mxPoint x="1010" y="971" as="targetPoint"/>
                    </mxGeometry>
                </mxCell>
                <mxCell id="51" value="DN''" style="ellipse;whiteSpace=wrap;html=1;rounded=0;shadow=0;glass=0;labelBackgroundColor=none;labelBorderColor=none;sketch=0;fillColor=none;" vertex="1" parent="1">
                    <mxGeometry x="720" y="680" width="30" height="20" as="geometry"/>
                </mxCell>
                <mxCell id="52" value="del ref" style="endArrow=classic;html=1;" edge="1" parent="1">
                    <mxGeometry width="50" height="50" relative="1" as="geometry">
                        <mxPoint x="760" y="710" as="sourcePoint"/>
                        <mxPoint x="310" y="730" as="targetPoint"/>
                    </mxGeometry>
                </mxCell>
                <mxCell id="53" value="UNTIL&lt;br&gt;direct io complete" style="endArrow=classic;html=1;" edge="1" parent="1">
                    <mxGeometry width="50" height="50" relative="1" as="geometry">
                        <mxPoint x="310" y="740" as="sourcePoint"/>
                        <mxPoint x="760" y="770" as="targetPoint"/>
                    </mxGeometry>
                </mxCell>
                <mxCell id="54" value="ref" style="ellipse;whiteSpace=wrap;html=1;rounded=0;shadow=0;glass=0;labelBackgroundColor=none;labelBorderColor=none;sketch=0;fillColor=none;" vertex="1" parent="1">
                    <mxGeometry x="275" y="730" width="30" height="20" as="geometry"/>
                </mxCell>
                <mxCell id="56" value="" style="shape=sumEllipse;perimeter=ellipsePerimeter;whiteSpace=wrap;html=1;backgroundOutline=1;rounded=0;shadow=0;glass=0;labelBackgroundColor=none;labelBorderColor=none;sketch=0;strokeColor=#CC0000;fontColor=#FFFFFF;fillColor=none;" vertex="1" parent="1">
                    <mxGeometry x="280" y="730" width="20" height="20" as="geometry"/>
                </mxCell>
                <mxCell id="57" value="move page&lt;br&gt;unlatch" style="endArrow=classic;html=1;startArrow=none;" edge="1" parent="1">
                    <mxGeometry width="50" height="50" relative="1" as="geometry">
                        <mxPoint x="1010" y="1001" as="sourcePoint"/>
                        <mxPoint x="540" y="1021" as="targetPoint"/>
                    </mxGeometry>
                </mxCell>
                <mxCell id="58" value="" style="endArrow=classic;html=1;" edge="1" parent="1">
                    <mxGeometry width="50" height="50" relative="1" as="geometry">
                        <mxPoint x="540.0000000000002" y="1031" as="sourcePoint"/>
                        <mxPoint x="1010" y="1061" as="targetPoint"/>
                    </mxGeometry>
                </mxCell>
                <mxCell id="59" value="rack DN'" style="ellipse;whiteSpace=wrap;html=1;rounded=0;shadow=0;glass=0;labelBackgroundColor=none;labelBorderColor=none;sketch=0;fillColor=none;" vertex="1" parent="1">
                    <mxGeometry x="540" y="120" width="70" height="20" as="geometry"/>
                </mxCell>
                <mxCell id="60" value="rack DN''" style="ellipse;whiteSpace=wrap;html=1;rounded=0;shadow=0;glass=0;labelBackgroundColor=none;labelBorderColor=none;sketch=0;fillColor=none;" vertex="1" parent="1">
                    <mxGeometry x="460" y="1031" width="70" height="20" as="geometry"/>
                </mxCell>
                <mxCell id="62" value="rack DN'" style="ellipse;whiteSpace=wrap;html=1;rounded=0;shadow=0;glass=0;labelBackgroundColor=none;labelBorderColor=none;sketch=0;fillColor=none;" vertex="1" parent="1">
                    <mxGeometry x="460" y="565" width="70" height="20" as="geometry"/>
                </mxCell>
                <mxCell id="64" value="&lt;font style=&quot;font-size: 24px;&quot;&gt;Swap Page&lt;/font&gt;" style="text;html=1;strokeColor=none;fillColor=none;align=center;verticalAlign=middle;whiteSpace=wrap;rounded=0;shadow=0;glass=0;labelBackgroundColor=none;labelBorderColor=none;sketch=0;fontColor=#CCCC00;fontStyle=1" vertex="1" parent="1">
                    <mxGeometry x="820" y="490" width="140" height="30" as="geometry"/>
                </mxCell>
                <mxCell id="65" value="&lt;font style=&quot;font-size: 24px;&quot;&gt;Direct IO&lt;/font&gt;" style="text;html=1;strokeColor=none;fillColor=none;align=center;verticalAlign=middle;whiteSpace=wrap;rounded=0;shadow=0;glass=0;labelBackgroundColor=none;labelBorderColor=none;sketch=0;fontColor=#CCCC00;fontStyle=1" vertex="1" parent="1">
                    <mxGeometry x="580" y="70" width="140" height="30" as="geometry"/>
                </mxCell>
                <mxCell id="66" value="" style="endArrow=classic;html=1;strokeWidth=1;fontSize=11;fontColor=#CCCC00;" edge="1" parent="1">
                    <mxGeometry width="50" height="50" relative="1" as="geometry">
                        <mxPoint x="310" y="805" as="sourcePoint"/>
                        <mxPoint x="540" y="835" as="targetPoint"/>
                    </mxGeometry>
                </mxCell>
                <mxCell id="67" value="block" style="shape=hexagon;perimeter=hexagonPerimeter2;whiteSpace=wrap;html=1;fixedSize=1;rounded=0;shadow=0;glass=0;labelBackgroundColor=none;labelBorderColor=none;sketch=0;strokeColor=#FFFFFF;fontSize=11;fontColor=#FFFFFF;fillColor=none;size=10;" vertex="1" parent="1">
                    <mxGeometry x="550" y="835" width="50" height="20" as="geometry"/>
                </mxCell>
                <mxCell id="70" value="&lt;font color=&quot;#ffffff&quot;&gt;new rack&lt;/font&gt;" style="endArrow=classic;html=1;strokeWidth=1;fontSize=11;fontColor=#CCCC00;" edge="1" parent="1">
                    <mxGeometry width="50" height="50" relative="1" as="geometry">
                        <mxPoint x="540" y="1066" as="sourcePoint"/>
                        <mxPoint x="310" y="1096" as="targetPoint"/>
                    </mxGeometry>
                </mxCell>
                <mxCell id="72" value="ref'" style="ellipse;whiteSpace=wrap;html=1;rounded=0;shadow=0;glass=0;labelBackgroundColor=none;labelBorderColor=none;sketch=0;fillColor=none;" vertex="1" parent="1">
                    <mxGeometry x="720" y="650" width="30" height="20" as="geometry"/>
                </mxCell>
                <mxCell id="74" value="del ref" style="endArrow=classic;html=1;" edge="1" parent="1">
                    <mxGeometry width="50" height="50" relative="1" as="geometry">
                        <mxPoint x="760" y="710" as="sourcePoint"/>
                        <mxPoint x="1010" y="730" as="targetPoint"/>
                    </mxGeometry>
                </mxCell>
                <mxCell id="75" value="UNTIL&lt;br&gt;direct io complete" style="endArrow=classic;html=1;" edge="1" parent="1">
                    <mxGeometry width="50" height="50" relative="1" as="geometry">
                        <mxPoint x="1005" y="810" as="sourcePoint"/>
                        <mxPoint x="755" y="840" as="targetPoint"/>
                    </mxGeometry>
                </mxCell>
                <mxCell id="76" value="ref" style="ellipse;whiteSpace=wrap;html=1;rounded=0;shadow=0;glass=0;labelBackgroundColor=none;labelBorderColor=none;sketch=0;fillColor=none;" vertex="1" parent="1">
                    <mxGeometry x="1020" y="800" width="30" height="20" as="geometry"/>
                </mxCell>
                <mxCell id="77" value="" style="shape=sumEllipse;perimeter=ellipsePerimeter;whiteSpace=wrap;html=1;backgroundOutline=1;rounded=0;shadow=0;glass=0;labelBackgroundColor=none;labelBorderColor=none;sketch=0;strokeColor=#CC0000;fontColor=#FFFFFF;fillColor=none;" vertex="1" parent="1">
                    <mxGeometry x="1025" y="800" width="20" height="20" as="geometry"/>
                </mxCell>
                <mxCell id="78" value="DN" style="ellipse;whiteSpace=wrap;html=1;rounded=0;shadow=0;glass=0;labelBackgroundColor=none;labelBorderColor=none;sketch=0;fillColor=none;" vertex="1" parent="1">
                    <mxGeometry x="680" y="680" width="30" height="20" as="geometry"/>
                </mxCell>
                <mxCell id="80" value="CN''" style="rounded=1;whiteSpace=wrap;html=1;" vertex="1" parent="1">
                    <mxGeometry x="1220" y="30" width="80" height="30" as="geometry"/>
                </mxCell>
                <mxCell id="81" style="edgeStyle=none;html=1;" edge="1" parent="1" source="80">
                    <mxGeometry relative="1" as="geometry">
                        <mxPoint x="1257" y="1140" as="targetPoint"/>
                    </mxGeometry>
                </mxCell>
                <mxCell id="82" value="del swap out&lt;br&gt;page cache" style="endArrow=classic;html=1;strokeWidth=1;fontSize=11;fontColor=#FFFFFF;" edge="1" parent="1">
                    <mxGeometry width="50" height="50" relative="1" as="geometry">
                        <mxPoint x="1010" y="740" as="sourcePoint"/>
                        <mxPoint x="1260" y="760" as="targetPoint"/>
                    </mxGeometry>
                </mxCell>
                <mxCell id="83" value="" style="endArrow=classic;html=1;strokeWidth=1;fontSize=11;fontColor=#FFFFFF;" edge="1" parent="1">
                    <mxGeometry width="50" height="50" relative="1" as="geometry">
                        <mxPoint x="1260" y="780" as="sourcePoint"/>
                        <mxPoint x="1010" y="800" as="targetPoint"/>
                    </mxGeometry>
                </mxCell>
                <mxCell id="84" value="rack DN''" style="ellipse;whiteSpace=wrap;html=1;rounded=0;shadow=0;glass=0;labelBackgroundColor=none;labelBorderColor=none;sketch=0;fillColor=none;" vertex="1" parent="1">
                    <mxGeometry x="460" y="590" width="70" height="20" as="geometry"/>
                </mxCell>
                <mxCell id="85" value="rack DN'" style="ellipse;whiteSpace=wrap;html=1;rounded=0;shadow=0;glass=0;labelBackgroundColor=none;labelBorderColor=none;sketch=0;fillColor=none;" vertex="1" parent="1">
                    <mxGeometry x="460" y="1010" width="70" height="20" as="geometry"/>
                </mxCell>
                <mxCell id="86" value="tlb" style="ellipse;whiteSpace=wrap;html=1;rounded=0;shadow=0;glass=0;labelBackgroundColor=none;labelBorderColor=none;sketch=0;fillColor=none;" vertex="1" parent="1">
                    <mxGeometry x="1015" y="970" width="30" height="20" as="geometry"/>
                </mxCell>
                <mxCell id="87" value="tlb" style="ellipse;whiteSpace=wrap;html=1;rounded=0;shadow=0;glass=0;labelBackgroundColor=none;labelBorderColor=none;sketch=0;fillColor=none;" vertex="1" parent="1">
                    <mxGeometry x="720" y="920" width="30" height="20" as="geometry"/>
                </mxCell>
            </root>
        </mxGraphModel>
    </diagram>
</mxfile>